<?xml version="1.0" encoding="UTF-8" standalone="no"?>
<!DOCTYPE svg PUBLIC "-//W3C//DTD SVG 1.1//EN"
 "http://www.w3.org/Graphics/SVG/1.1/DTD/svg11.dtd">
<!-- Generated by graphviz version 2.43.0 (0)
 -->
<!-- Title: workflow Pages: 1 -->
<svg width="191pt" height="372pt"
 viewBox="0.00 0.00 191.00 372.00" xmlns="http://www.w3.org/2000/svg" xmlns:xlink="http://www.w3.org/1999/xlink">
<g id="graph0" class="graph" transform="scale(1 1) rotate(0) translate(4 368)">
<title>workflow</title>
<g id="clust1" class="cluster">
<title>cluster_inputs</title>
<polygon fill="#eeeeee" stroke="#818281" stroke-width="2" points="8,-280 8,-356 175,-356 175,-280 8,-280"/>
<text text-anchor="middle" x="91.5" y="-340.8" font-family="Fira Sans" font-size="14.00">Workflow Inputs</text>
</g>
<g id="clust2" class="cluster">
<title>cluster_outputs</title>
<polygon fill="#eeeeee" stroke="#818281" stroke-width="2" points="29,-8 29,-84 170,-84 170,-8 29,-8"/>
<text text-anchor="middle" x="99.5" y="-15.8" font-family="Fira Sans" font-size="14.00">Workflow Outputs</text>
</g>
<!-- speakers -->
<g id="node1" class="node">
<title>speakers</title>
<polygon fill="#6fc1b5" stroke="#0f9884" stroke-width="2" points="15.5,-288.5 15.5,-324.5 94.5,-324.5 94.5,-288.5 15.5,-288.5"/>
<text text-anchor="middle" x="55" y="-302.8" font-family="Fira Sans" font-size="14.00">speakers</text>
</g>
<!-- calculation -->
<g id="node4" class="node">
<title>calculation</title>
<polygon fill="#c5e0b4" stroke="#385723" stroke-width="2" points="24.5,-205.5 24.5,-241.5 115.5,-241.5 115.5,-205.5 24.5,-205.5"/>
<text text-anchor="middle" x="70" y="-219.8" font-family="Fira Sans" font-size="14.00">calculation</text>
</g>
<!-- speakers&#45;&gt;calculation -->
<g id="edge1" class="edge">
<title>speakers&#45;&gt;calculation</title>
<path fill="none" stroke="#385723" stroke-width="2" d="M58.18,-288.32C60.15,-277.69 62.72,-263.81 64.96,-251.7"/>
<polygon fill="#385723" stroke="#385723" stroke-width="2" points="68.44,-252.12 66.82,-241.65 61.56,-250.85 68.44,-252.12"/>
<text text-anchor="middle" x="83" y="-262.8" font-family="Fira Sans" font-size="9.00" fill="#818281">speakers</text>
</g>
<!-- pop -->
<g id="node2" class="node">
<title>pop</title>
<polygon fill="#6fc1b5" stroke="#0f9884" stroke-width="2" points="113,-288.5 113,-324.5 167,-324.5 167,-288.5 113,-288.5"/>
<text text-anchor="middle" x="140" y="-302.8" font-family="Fira Sans" font-size="14.00">pop</text>
</g>
<!-- pop&#45;&gt;calculation -->
<g id="edge2" class="edge">
<title>pop&#45;&gt;calculation</title>
<path fill="none" stroke="#385723" stroke-width="2" d="M128.47,-288.09C122.42,-279.38 114.69,-268.83 107,-260 103.74,-256.25 100.14,-252.45 96.5,-248.8"/>
<polygon fill="#385723" stroke="#385723" stroke-width="2" points="98.7,-246.05 89.09,-241.58 93.81,-251.06 98.7,-246.05"/>
<text text-anchor="middle" x="138.5" y="-262.8" font-family="Fira Sans" font-size="9.00" fill="#818281">population</text>
</g>
<!-- out -->
<g id="node3" class="node">
<title>out</title>
<polygon fill="#f8cbad" stroke="#823909" stroke-width="2" points="43,-39.5 43,-75.5 97,-75.5 97,-39.5 43,-39.5"/>
<text text-anchor="middle" x="70" y="-53.8" font-family="Fira Sans" font-size="14.00">out</text>
</g>
<!-- plot -->
<g id="node5" class="node">
<title>plot</title>
<polygon fill="#c5e0b4" stroke="#385723" stroke-width="2" points="43,-122.5 43,-158.5 97,-158.5 97,-122.5 43,-122.5"/>
<text text-anchor="middle" x="70" y="-136.8" font-family="Fira Sans" font-size="14.00">plot</text>
</g>
<!-- calculation&#45;&gt;plot -->
<g id="edge3" class="edge">
<title>calculation&#45;&gt;plot</title>
<path fill="none" stroke="#385723" stroke-width="2" d="M70,-205.32C70,-194.69 70,-180.81 70,-168.7"/>
<polygon fill="#385723" stroke="#385723" stroke-width="2" points="73.5,-168.65 70,-158.65 66.5,-168.65 73.5,-168.65"/>
<text text-anchor="middle" x="85.5" y="-179.8" font-family="Fira Sans" font-size="9.00" fill="#818281">results</text>
</g>
<!-- plot&#45;&gt;out -->
<g id="edge4" class="edge">
<title>plot&#45;&gt;out</title>
<path fill="none" stroke="#385723" stroke-width="2" d="M70,-122.32C70,-111.69 70,-97.81 70,-85.7"/>
<polygon fill="#385723" stroke="#385723" stroke-width="2" points="73.5,-85.65 70,-75.65 66.5,-85.65 73.5,-85.65"/>
<text text-anchor="middle" x="78" y="-96.8" font-family="Fira Sans" font-size="9.00" fill="#818281">out</text>
</g>
</g>
</svg>
